<svg xmlns="http://www.w3.org/2000/svg" viewBox="0 0 33.02 39.02"><defs><style>.cls-1{fill:#eac9c2;}.cls-2{fill:#040006;}.cls-3{fill:#0d0c0d;}.cls-4{fill:#c5473a;}.cls-5{fill:#da9771;}.cls-6{fill:#fff;}.cls-7{fill:#d58760;}.cls-8{fill:#a1342d;}.cls-9{fill:#121f4f;}.cls-10{fill:#d17a55;}.cls-11{fill:#cd6947;}.cls-12{fill:#57191a;}.cls-13{fill:#94352d;}.cls-14{fill:#862f25;}.cls-15{fill:#772f1d;}</style></defs><title>Ativo 1</title><g id="Camada_2" data-name="Camada 2"><g id="Camada_1-2" data-name="Camada 1"><path class="cls-1" d="M33,18.45A4.18,4.18,0,0,0,31.68,16,4.53,4.53,0,0,0,29,14.92c-1.37-.14-2.78.2-4.13-.25a5.47,5.47,0,0,1-2.64-2.41c-.35-.52-.66-1.07-1-1.58a8.7,8.7,0,0,0-1.16-1.32A4.56,4.56,0,0,0,17.32,8a3.38,3.38,0,0,0-2.74,1.48,24.08,24.08,0,0,0-1.75,3.65,3.42,3.42,0,0,1-1.3,1.41A4.35,4.35,0,0,1,9.86,15a13.87,13.87,0,0,0-3,.39A4.89,4.89,0,0,0,4.64,17a8.11,8.11,0,0,0-1.12,6.75,8,8,0,0,0,2,3.27,8.32,8.32,0,0,1,1.11,1.5,7,7,0,0,1,.65,2c.13.69.23,1.39.42,2.06a4.6,4.6,0,0,0,.9,1.66,3.83,3.83,0,0,0,2.91,1.15,30.47,30.47,0,0,1,8.4.91c1.42.36,3.84.94,5.62-.25a6.18,6.18,0,0,0,2.24-3.93c.1-.48.18-1,.25-1.47s.21-1.08.34-1.62a9.28,9.28,0,0,1,.73-2,11.7,11.7,0,0,1,1.21-1.79,15,15,0,0,0,2.24-3.5A6.35,6.35,0,0,0,33,18.45Z"/><path class="cls-2" d="M24.86,5.78a5.41,5.41,0,0,0-1.42-3.22c-.16-.16-.52.17-.37.34a5.31,5.31,0,0,1,1.27,3.87c0,.63,0,1.35-.07,2.15-.05.61.49.58.55.2A17.77,17.77,0,0,0,24.86,5.78Z"/><path class="cls-2" d="M23.81,3.51a3,3,0,0,0-.27-.42c-.13-.17-.31-.32-.29-.56-.15.07-.28.25-.18.37a5.31,5.31,0,0,1,1.27,3.87c0,.63,0,1.35-.07,2.15a.47.47,0,0,0,.09.39,6.12,6.12,0,0,0,.24-2.08,8.91,8.91,0,0,0-.32-2.63A5.6,5.6,0,0,0,23.81,3.51Z"/><path class="cls-3" d="M22.35,3C21.22,1.39,19.21.52,16.56,1.66A4.86,4.86,0,0,0,14,4.09,10.73,10.73,0,0,0,13.66,10l.15.67a6.93,6.93,0,0,0,2.08,3.72,4.09,4.09,0,0,0,3.55,1,4.69,4.69,0,0,0,3-2.39C24,10,24.29,5.69,22.35,3Z"/><path class="cls-4" d="M31.25,30.37a17.52,17.52,0,0,0-.36-1.75c-.18-.71-.61-1.24-.84-1.94-.14-.41-.06-1-.19-1.4s-.52-.6-.66-1,0-1-.2-1.44a18.11,18.11,0,0,0-.9-2A8.09,8.09,0,0,0,25.83,18l-.27-.18a15.17,15.17,0,0,0-2.29-1.19A18.62,18.62,0,0,0,17,15.52a17.69,17.69,0,0,0-4.88.81,6.32,6.32,0,0,0-3.6,2.07C8,19,7.38,19.59,6.78,20.15c-.31.29-.83.28-1.15.54s-.63.94-1.09,1.22c-1.31.8-2.78.86-3.62,2.37a7.32,7.32,0,0,0-.71,2.79A2.21,2.21,0,0,0,.9,28.66a4,4,0,0,0,3,.81,12.61,12.61,0,0,0,4.25-1.18c1.3-.56,1.79,0,1.73,1.12s-.09,2-.13,3-.06,2.21-.09,3.32.41,2.2,1.52,2.4c2.67.46,11.45,1.56,12.63.16a19.91,19.91,0,0,0,.6-3.64c.11-.92.42-1.24,1.06-.55a4.43,4.43,0,0,0,2.83,1.45A2.71,2.71,0,0,0,31,33.81,6.57,6.57,0,0,0,31.25,30.37Z"/><path class="cls-3" d="M28.8,24.15a10.67,10.67,0,0,1-.56,1.24,9.52,9.52,0,0,1-.91,1.25s0,0,0,0a5,5,0,0,0,.94-1.1,3.18,3.18,0,0,0,.53-1.41Z"/><path class="cls-5" d="M15.91,19.42c-.19-.43-.42-.76-.84-.84a2.07,2.07,0,0,0-1.25.29,5.33,5.33,0,0,0-2,1.6c-.39.55,3.13,1.2,3.72,1.2C16.66,21.68,16.23,20.17,15.91,19.42Z"/><path class="cls-6" d="M16.08,20.62C16,20.36,16,20,15.65,20a.91.91,0,0,0-.38,0c-.18.07-.13.21-.08.33s.22.46.5.51S16.14,20.82,16.08,20.62Z"/><path class="cls-7" d="M14.63,21a3.88,3.88,0,0,1-.3-1.51s0,0,0,0,0,.23,0,.34c-.12.36-.53.25-.75.48a1,1,0,0,0-.25.83.51.51,0,0,1,0,.13,17.11,17.11,0,0,0,1.87.36A1.53,1.53,0,0,1,14.63,21Z"/><path class="cls-3" d="M19.33,15.91a12,12,0,0,0-2.16-.09c-1.39.06-2,1.44-.88,2.63,1.42,1.5,3.88,1.68,5-.23a1.31,1.31,0,0,0-.73-2.09A7.34,7.34,0,0,0,19.33,15.91Z"/><path class="cls-8" d="M30.65,34.46l-.28.12a4,4,0,0,1-2.59-.27,10.31,10.31,0,0,1-2.05-1.08c-.69-.44-1.79-.94-2.07.27s.61,4.1-1,4.54c-1,.27-2-.45-2.89-.73A10.46,10.46,0,0,0,16.85,37a19.07,19.07,0,0,0-2.27.12,11.3,11.3,0,0,1-2.08.22,2.32,2.32,0,0,1-1.85-2.13,7.52,7.52,0,0,1,0-2.17,9.68,9.68,0,0,1,.22-1.31,5.5,5.5,0,0,1,.56-1.11.89.89,0,0,0,0-.68c-.12-.27-.37-.43-.51-.69-.35-.61.17-1.34.21-2,.07-1.17-1-1.45-1.81-1.39a14,14,0,0,0-2.8.74,25.42,25.42,0,0,1-3.18.78c-.95.14-2.57.27-3-1a1.05,1.05,0,0,1-.06-.24,5.43,5.43,0,0,0-.12,1A2.21,2.21,0,0,0,.9,28.66a4,4,0,0,0,3,.81,12.61,12.61,0,0,0,4.25-1.18c1.3-.56,1.79,0,1.73,1.12s-.09,2-.13,3-.06,2.21-.09,3.32.41,2.2,1.52,2.4c2.67.46,11.45,1.56,12.63.16a19.91,19.91,0,0,0,.6-3.64c.11-.92.42-1.24,1.06-.55a4.43,4.43,0,0,0,2.83,1.45A2.58,2.58,0,0,0,30.65,34.46Z"/><path class="cls-5" d="M31.05,31.41a5.18,5.18,0,0,0-1.31-1.88,11,11,0,0,0-3.2-1.76,9.46,9.46,0,0,1-1.8-1c-.29-.2-.61-.5-1-.32a1.89,1.89,0,0,0-.61.87,9.78,9.78,0,0,0-.42,1.14c-.3,1-.48,1.48.17,2.08A18.07,18.07,0,0,1,24.38,32c.53.68,1,1.43,1.55,2.1A4.61,4.61,0,0,0,29,35.84a2.34,2.34,0,0,0,2.48-2.09A4.92,4.92,0,0,0,31.05,31.41Z"/><path class="cls-7" d="M31.21,34.63a2.72,2.72,0,0,1-1.28.48,3.63,3.63,0,0,1-2.11-.4,4.33,4.33,0,0,1-1.39-1.31,11.39,11.39,0,0,1-1.9-4.57,8.65,8.65,0,0,0-.6-2.39l-.15,0a1.89,1.89,0,0,0-.61.87,9.78,9.78,0,0,0-.42,1.14c-.3,1-.48,1.48.17,2.08A18.07,18.07,0,0,1,24.38,32c.53.68,1,1.43,1.55,2.1A4.61,4.61,0,0,0,29,35.84,2.34,2.34,0,0,0,31.21,34.63Z"/><path class="cls-5" d="M10.88,21.67a28.4,28.4,0,0,1-4.81.94c-1.34.14-2.77.14-3.91,1.06A7.36,7.36,0,0,0,.84,25.22,4.25,4.25,0,0,0,0,27.07,1.61,1.61,0,0,0,.47,28.5,2.76,2.76,0,0,0,1.89,29a10.69,10.69,0,0,0,1.38.11,4.55,4.55,0,0,0,1.88-.38,46.69,46.69,0,0,0,5.82-3,3.26,3.26,0,0,0,.67-1.5C11.93,22.88,11.59,21.46,10.88,21.67Z"/><path class="cls-7" d="M11,25.81a2.83,2.83,0,0,0,.3-.44l-.09-.21c-.55-1.15-2.47-1.84-4.33-.3-.4.33-.73.76-1.11,1.11a7.19,7.19,0,0,1-1.66,1.11c-.91.47-2.18.94-3.1.3A1.52,1.52,0,0,1,.4,26,3.38,3.38,0,0,0,0,27.07,1.61,1.61,0,0,0,.47,28.5,2.76,2.76,0,0,0,1.89,29a10.69,10.69,0,0,0,1.38.11,4.55,4.55,0,0,0,1.88-.38A46.69,46.69,0,0,0,11,25.81Z"/><path class="cls-5" d="M23.2,22.69a1.26,1.26,0,0,0-.5-.9c-.42-.24-1.27-.32-1.41.35a2,2,0,0,0,.56,1.67c.63.53,1.73.74,1.59-.1C23.38,23.36,23.26,23,23.2,22.69Z"/><path class="cls-9" d="M23.54,24a10.1,10.1,0,0,0-1.73-1c-.43-.09-.62.07-1,.06a20.13,20.13,0,0,1-2.85-1.16c-.19-.12-.3-.38-.37-.45a3.83,3.83,0,0,0-1.93-.7,2.76,2.76,0,0,0-1,.36c-1.17.61-1.72,1.2-2.38,3a6.42,6.42,0,0,0-.43,1.79c0,.58.23.93.8.88s1.9-1.4,2.64-2.1c.3-.28.38-.19.59-.07l.14.08c.16.09.17.18.11.42a2.09,2.09,0,0,0-.08.61c0,.28.3.43.5.54.36.18.73.33,1.08.53s.53-.07.78-.29l.21-.18a.39.39,0,0,1,.38-.06l.45.22c.33.15.3.61.16,1.21-.63,2.57.69,1.73,1.62,1.06a8.93,8.93,0,0,0,2.17-2.14A4.69,4.69,0,0,0,23.54,24Z"/><path class="cls-3" d="M17.72,22.17a3.89,3.89,0,0,0-.4,1,14.58,14.58,0,0,0,2.33,1.11,8.79,8.79,0,0,0,.43-1.07S18.53,22.56,17.72,22.17Z"/><path class="cls-3" d="M23.35,26.65a2,2,0,0,0-.33-2,2.16,2.16,0,0,0-1.7-.5,3.17,3.17,0,0,0-1.82.93,8.84,8.84,0,0,1-.93.81,1.23,1.23,0,0,1-1.3.09,1.85,1.85,0,0,1-.56-.36c-.19-.17-.15-.48-.11-.71a11,11,0,0,0,.25-1.27A1.82,1.82,0,0,0,16,22a2.17,2.17,0,0,0-3.22.77,9.49,9.49,0,0,0-.54,1.27,6.42,6.42,0,0,0-.43,1.79c0,.58.23.93.8.88s1.9-1.4,2.64-2.1c.3-.28.38-.19.59-.07l.14.08c.16.09.17.18.11.42a2.09,2.09,0,0,0-.08.61c0,.28.3.43.5.54.36.18.73.33,1.08.53s.53-.07.78-.29l.21-.18a.39.39,0,0,1,.38-.06l.45.22c.33.15.3.61.16,1.21-.63,2.57.69,1.73,1.62,1.06A9.15,9.15,0,0,0,23.35,26.65Z"/><path class="cls-10" d="M21.1,16.8A5.07,5.07,0,0,1,21,16c0-.22,0-1.46,0-2.24,0-.28,0-.62-.68-.71s-2.93,0-3.21,0-.51.19-.51.58a10,10,0,0,1-.13,2,5.21,5.21,0,0,0-.23,1.42,1.48,1.48,0,0,0,.83,1.06,3.64,3.64,0,0,0,1.81.46,3,3,0,0,0,1.62-.39A1.3,1.3,0,0,0,21.1,16.8Z"/><path class="cls-11" d="M18.13,17.44a3.63,3.63,0,0,1,.33-3.2,3.93,3.93,0,0,1,.95-1.19c-.9,0-2.09,0-2.29,0-.36,0-.51.19-.51.58a10,10,0,0,1-.13,2,5.21,5.21,0,0,0-.23,1.42,1.48,1.48,0,0,0,.83,1.06,3.64,3.64,0,0,0,1.81.46,3,3,0,0,0,1.62-.39.91.91,0,0,0,.16-.11A1.92,1.92,0,0,1,18.13,17.44Z"/><path class="cls-12" d="M22.26,10.12c0-.5.15-2.25.24-2.61C22.65,7,23.22,7,23.63,7a2.58,2.58,0,0,1,.78.18c.45.19.69.32.68.77a15.15,15.15,0,0,1-.45,3.37c-.17.58-.38.69-.68.73a6,6,0,0,1-1.17-.11c-.25,0-.52-.14-.58-.67A7.06,7.06,0,0,1,22.26,10.12Z"/><path class="cls-3" d="M22.79,11.94l.42.06c.45.06.77-.43.94-1a7.94,7.94,0,0,0,.28-2.52,10.64,10.64,0,0,0-.09-1.34A3.22,3.22,0,0,0,23.63,7c-.41,0-1,0-1.13.51-.09.36-.2,2.11-.24,2.61a7.06,7.06,0,0,0-.05,1.15C22.27,11.8,22.54,11.89,22.79,11.94Z"/><path class="cls-5" d="M21.45,2.39a6.84,6.84,0,0,0-3.78-.18c-1.92.43-3.2,2.18-3.39,4.87a16.31,16.31,0,0,0,.29,4.28c.82,4.07,4.09,5,5.75,4.43a3.77,3.77,0,0,0,2.1-2,13.75,13.75,0,0,0,1.07-8.4A4,4,0,0,0,21.45,2.39Z"/><path class="cls-7" d="M23.49,5.42a4,4,0,0,0-2-3,6.84,6.84,0,0,0-3.78-.18c-1.92.43-3.2,2.18-3.39,4.87a16.31,16.31,0,0,0,.29,4.28c.61,3,2.56,4.31,4.21,4.55l-.22-.07a4.45,4.45,0,0,1-1.79-1.14,3,3,0,0,1-.89-1.92,2,2,0,0,1,.84-1.66,4.94,4.94,0,0,1,3.05-.67c.61,0,1.23.07,1.85.11a7.52,7.52,0,0,1,1.82.2A13.52,13.52,0,0,0,23.49,5.42Z"/><path class="cls-13" d="M22.46,1.91A4.78,4.78,0,0,0,17.74.67a5.53,5.53,0,0,0-3.77,3,7.34,7.34,0,0,0-.67,2.83,3.48,3.48,0,0,0,.49,2.07c.17.22.22.07.19-.13a4.88,4.88,0,0,1,.69-3.26c.7-1.06,2-1,3-.94A19,19,0,0,0,21,4.49,2.53,2.53,0,0,0,22.52,4a3.75,3.75,0,0,1,.81,1.25,5.29,5.29,0,0,1,.32,1.58c0,.31.11.35.17,0A5.61,5.61,0,0,0,22.46,1.91Z"/><path class="cls-14" d="M19.32,1.35A.65.65,0,0,0,18.85,1a6.84,6.84,0,0,0-1.18,0,1,1,0,0,0-.3.09c-.1.05-.05.09,0,.13.7.53.74,2,.75,2.94,0,.13.09.16.23.16l1.38-.05c.18,0,.2,0,.2-.18A4.82,4.82,0,0,0,19.32,1.35Z"/><path class="cls-12" d="M18.5,3.34a2.07,2.07,0,0,1,.06-1.28.86.86,0,0,1,.84-.57,1,1,0,0,1-.08-.14A.65.65,0,0,0,18.85,1a6.84,6.84,0,0,0-1.18,0,1,1,0,0,0-.3.09c-.1.05-.05.09,0,.13.7.53.74,2,.75,2.94,0,.13.09.16.23.16l.75,0A2.18,2.18,0,0,1,18.5,3.34Z"/><path class="cls-12" d="M15.22,10.34c0-.49-.14-2.24-.24-2.6-.14-.54-.72-.55-1.13-.51a2.46,2.46,0,0,0-.77.18c-.45.18-.7.32-.68.76a14.68,14.68,0,0,0,.45,3.38c.17.58.37.68.68.72a5.84,5.84,0,0,0,1.16-.1c.25-.05.53-.14.58-.68A5.42,5.42,0,0,0,15.22,10.34Z"/><path class="cls-3" d="M15,7.74c-.13-.48-.58-.54-1-.53a4.36,4.36,0,0,1,.54,2.29c.1,2.21-.28,2.55-1,2.78a6.7,6.7,0,0,0,1.11-.11c.25-.05.53-.14.58-.68a5.42,5.42,0,0,0,0-1.15C15.18,9.85,15.08,8.1,15,7.74Z"/><path class="cls-14" d="M13.32,8.22c-.26-.56-1-.72-.91.13a14,14,0,0,0,.44,3.2c.26.87.7.2.78-.2A6.92,6.92,0,0,0,13.32,8.22Z"/><path class="cls-13" d="M13.32,8.22c-.21-.45-.7-.64-.86-.25.27-.23.62,0,.76.48a8.51,8.51,0,0,1,.25,1.24,3.54,3.54,0,0,1,0,1.65,1,1,0,0,1-.19.37c-.15.18-.3-.07-.37-.19l-.06-.12a.83.83,0,0,0,0,.15c.26.87.7.2.78-.2A6.92,6.92,0,0,0,13.32,8.22Z"/><path class="cls-14" d="M22.81,3.45A13.81,13.81,0,0,0,21,3.31,20.83,20.83,0,0,0,15,4a1.91,1.91,0,0,0-1.12,1.27,10.89,10.89,0,0,0,0,3.42,1.85,1.85,0,0,0,1.56,1.8,32.3,32.3,0,0,0,8.4,0,1.81,1.81,0,0,0,1.42-1.59,20.45,20.45,0,0,0,0-3.29C25.24,3.94,24.34,3.68,22.81,3.45Z"/><path class="cls-3" d="M24.81,5A1.45,1.45,0,0,0,24,4c-1.17-.57-5-.4-7-.14a2.47,2.47,0,0,0-1.73.71c-.45.57-.36,3.36-.15,4,.3,1,1.09,1,1.71,1,1.55.11,5.94.14,7.15-.32.69-.26.93-.57,1-2A10.35,10.35,0,0,0,24.81,5Z"/><path class="cls-12" d="M23.59,2.35A5.27,5.27,0,0,0,21.82.79,5.31,5.31,0,0,0,19.37,0a6.55,6.55,0,0,0-4.68,1.5,2.61,2.61,0,0,0-.9,1.28c0,.25.24.63.44.65A2.07,2.07,0,0,0,15,3.25a3.47,3.47,0,0,0,.42-.34,6.78,6.78,0,0,1,2.48-1.44,3.75,3.75,0,0,1,3,.33,9.49,9.49,0,0,1,1.08.7A3.77,3.77,0,0,0,22.7,3a1,1,0,0,0,.43,0,.69.69,0,0,0,.42-.19A.48.48,0,0,0,23.59,2.35Z"/><path class="cls-3" d="M21.37,1.79a4,4,0,0,0-2.91-.73,6.07,6.07,0,0,0-2.63,1.18c-.37.28-.81.67-1.27.59-.19,0-.35-.2-.55-.2a.58.58,0,0,0-.19,0l0,.13c0,.25.24.63.44.65A2.07,2.07,0,0,0,15,3.25a3.47,3.47,0,0,0,.42-.34,6.78,6.78,0,0,1,2.48-1.44,3.75,3.75,0,0,1,3,.33,9.49,9.49,0,0,1,1.08.7A3.77,3.77,0,0,0,22.7,3a1,1,0,0,0,.43,0,.84.84,0,0,0,.37-.14C22.76,3.13,22,2.21,21.37,1.79Z"/><path class="cls-12" d="M13.79,2.9A8,8,0,0,0,12.4,5.76a8.6,8.6,0,0,0-.22,3.13,2.14,2.14,0,0,0,.18.67c.07.15.27.16.46.13s.37-.12.38-.37a5.23,5.23,0,0,0,0-.82c0-.52-.26-1-.26-1.5a5.59,5.59,0,0,1,1.35-3.7C14.36,3.16,14,2.65,13.79,2.9Z"/><path class="cls-5" d="M17.14,22.45a5.85,5.85,0,0,0-1.29-1.15,6.46,6.46,0,0,0-1.58-.78,3.24,3.24,0,0,0-2.61,0,5,5,0,0,0-1.71,2,5.09,5.09,0,0,0-.71,2.55,2.46,2.46,0,0,0,.16.77h0a1.8,1.8,0,0,0,.17.34v0l0,0a3.19,3.19,0,0,0,.72.82,7.93,7.93,0,0,0,2.87.36.93.93,0,0,0,.77-.5,1,1,0,0,0,.53-.17,1,1,0,0,0,.42-.77H15c.36-.08.53-.47.62-.84.06-.21.09-.55,0-.66a1.92,1.92,0,0,1-.91-.24,3.69,3.69,0,0,1-.56-.62,3,3,0,0,1-.49-.77c-.11-.32,0-.45.23-.36a5.79,5.79,0,0,1,1.72.94,2.44,2.44,0,0,0,1.42.73.63.63,0,0,0,.66-.59A1.65,1.65,0,0,0,17.14,22.45Z"/><path class="cls-5" d="M24.76,25.65a2.16,2.16,0,0,0-.38-.86,8,8,0,0,0-.57-.89,2.12,2.12,0,0,0-1.66-.52,8.33,8.33,0,0,0-1.73.07.81.81,0,0,0-.8.85c0,.4.3.59.59.68.69.22,1.48,0,2.15.26.3.1.32.22.25.5a.76.76,0,0,1-.06.2.88.88,0,0,1-.54.49c-.21.1-.47.22-.64.28a.8.8,0,0,1-.75,0,3.61,3.61,0,0,0-.51-.36,1.65,1.65,0,0,0-1.27,0,.41.41,0,0,0-.29.4.51.51,0,0,0-.09.56A5.06,5.06,0,0,0,19.13,29l0,0a1.25,1.25,0,0,0,.44.67c.27.24.58.45.88.67a2.68,2.68,0,0,0,1,.56,2.34,2.34,0,0,0,1.38-.14,1.4,1.4,0,0,0,.47-.72,1,1,0,0,0,.05-.18,2.44,2.44,0,0,0,.46-.39,1.27,1.27,0,0,0,.23-.9,2.94,2.94,0,0,0,.55-.77,1.81,1.81,0,0,0-.05-1.35A1.5,1.5,0,0,0,24.76,25.65Z"/><path class="cls-15" d="M20.78,12a4.27,4.27,0,0,1-2.43.1c-.59-.12-.88.33-.76.9a1.87,1.87,0,0,0,.73,1.14,2,2,0,0,0,2.81-.35,2.3,2.3,0,0,0,.41-1C21.62,12.14,21.22,11.81,20.78,12Z"/><path class="cls-1" d="M18.56,14a1.86,1.86,0,0,0,1,.29,1.94,1.94,0,0,0,1.2-.43c.25-.2.19-.39-.1-.51a2.46,2.46,0,0,0-2,.12C18.21,13.7,18.29,13.84,18.56,14Z"/><path class="cls-15" d="M19.59,11.13a.46.46,0,0,0,.1-.1c.07-.13-.19-.14-.24,0S19.49,11.2,19.59,11.13Z"/><path class="cls-15" d="M20,11.08,19.9,11c-.06-.1.16-.1.2,0S20.06,11.14,20,11.08Z"/><path class="cls-6" d="M17.35,23.17a.81.81,0,0,0-.38-.28c-.27-.06-.57.14-.46.57.07.28.29.56.56.54a.51.51,0,0,0,.34-.27A.48.48,0,0,0,17.35,23.17Z"/><path class="cls-6" d="M19.89,24a.58.58,0,0,0,.07.7.64.64,0,0,0,.81-.14.48.48,0,0,0,.08-.43c-.05-.16-.05-.21-.33-.28S20,23.76,19.89,24Z"/><path class="cls-7" d="M22,28.25c-.44,0-.88,0-1.32,0a.62.62,0,0,1-.38,0c-.15-.08-1.25-1-1.34-1.11-.27-.29-.38-.51.09-.84l-.17.06a.41.41,0,0,0-.29.4.51.51,0,0,0-.09.56A5.06,5.06,0,0,0,19.13,29l0,0a1.25,1.25,0,0,0,.44.67c.27.24.58.45.88.67a3.24,3.24,0,0,0,.85.52,10.84,10.84,0,0,1-1.52-1.26c-.27-.36.21-.36.64-.29s.73.08,1.1.12c.06,0,.18,0,0-.06-.54-.15-1.08-.22-1.63-.32a1.24,1.24,0,0,1-.65-.34,3.22,3.22,0,0,1-.54-1c-.16-.43-.07-.4.2-.21l1.15.76a.82.82,0,0,0,.45.12A9.6,9.6,0,0,0,22,28.31C22.12,28.29,22.12,28.25,22,28.25Z"/><path class="cls-7" d="M15.58,24.47a1.92,1.92,0,0,1-.91-.24,3.69,3.69,0,0,1-.56-.62,3,3,0,0,1-.46-.71,1.66,1.66,0,0,0,.19.48,4.51,4.51,0,0,0,.59.9,3.56,3.56,0,0,0,.83.56c.27.18-.07.63-.2.78s-1,.05-1.56-.26A16.65,16.65,0,0,1,12,24.31s0,0,0,0a7.07,7.07,0,0,0,1.88,1.41,3.19,3.19,0,0,0,.54.24l.08.06c.23.21,0,.5-.18.6s-.83,0-1.21-.1A7.6,7.6,0,0,1,11.86,26s0,0,0,.05a4.62,4.62,0,0,0,1.33.8c.27.1.44.33.09.45l-.21.06a4.13,4.13,0,0,1-2.72-.86,3.09,3.09,0,0,1-1-2.31,5.26,5.26,0,0,0-.08.89,2.46,2.46,0,0,0,.16.77h0a1.8,1.8,0,0,0,.17.34v0l0,0a3.19,3.19,0,0,0,.72.82,5.14,5.14,0,0,0,2.05.34h1l.1,0h0l.08,0,0,0,0,0a1,1,0,0,0,.34-.36,1,1,0,0,0,.53-.17,1,1,0,0,0,.42-.77H15c.36-.08.53-.47.62-.84C15.68,24.92,15.71,24.58,15.58,24.47Z"/><path class="cls-3" d="M26.29,19.28a9.52,9.52,0,0,1-1.55,4.32s0,0,0,0a4.72,4.72,0,0,0,1.11-1.89,6.36,6.36,0,0,0,.42-2.45s0,0,0,0Z"/><path class="cls-3" d="M9.86,18.07a7.86,7.86,0,0,0,0,2.82s0,0,0,0c.06-.93,0-1.88,0-2.82,0,0,0,0,0,0Z"/><path class="cls-3" d="M14.37,29.11c1.05,1.15,2.71,2.41,4.19,1.61,0,0,0,0,0,0-1.57.52-3-.61-4.17-1.59,0,0,0,0,0,0Z"/><path class="cls-3" d="M18.4,31.06a.63.63,0,0,0,.73-.21s0,0,0,0a1.51,1.51,0,0,1-.71.22s0,0,0,0Z"/><path class="cls-12" d="M24,4c-1.17-.57-5-.4-7-.14a2.47,2.47,0,0,0-1.73.71,1.07,1.07,0,0,0-.16.37A3.09,3.09,0,0,1,16,4.52a9.9,9.9,0,0,1,2.16-.33,36.46,36.46,0,0,1,4.31,0c.73,0,1.72.07,2,1A6.24,6.24,0,0,1,24.59,7a7.5,7.5,0,0,1-.25,2,1.61,1.61,0,0,1-.12.33c.49-.26.68-.66.72-1.88A10.35,10.35,0,0,0,24.81,5,1.45,1.45,0,0,0,24,4Z"/><path class="cls-12" d="M15.45,10.46a32.3,32.3,0,0,0,8.4,0A1.69,1.69,0,0,0,25,9.66a2.55,2.55,0,0,1-1.19.53,12.34,12.34,0,0,1-1.57.17,36,36,0,0,1-5.09.07,4.76,4.76,0,0,1-2.24-.52A2.52,2.52,0,0,1,14,8,12.09,12.09,0,0,1,14,5.85a4.31,4.31,0,0,1,.23-1.23,1.69,1.69,0,0,0-.29.62,10.89,10.89,0,0,0,0,3.42A1.85,1.85,0,0,0,15.45,10.46Z"/><path class="cls-3" d="M14.07,2.9a3.08,3.08,0,0,1-.68,1.58,5.09,5.09,0,0,0-.65,1.82,4.78,4.78,0,0,0,.09,1.77,3,3,0,0,1,.08.95.68.68,0,0,1-.5.61.51.51,0,0,0,.41.06c.19,0,.37-.12.38-.37a5.23,5.23,0,0,0,0-.82c0-.52-.26-1-.26-1.5a5.59,5.59,0,0,1,1.35-3.7C14.32,3.22,14.21,3,14.07,2.9Z"/><path class="cls-4" d="M32.81,8.5c.19.29.07.28-.15.29-2,.1-4.11.09-6.16.11,0,0-.59.07,0-.18a39.26,39.26,0,0,1,4.66-1.85c.33-.1.3-.08.49.11a7.87,7.87,0,0,1,.53.62C32.37,7.89,32.6,8.19,32.81,8.5Zm-22.14,2c-1.61-.4-3.24-.73-4.87-1.1-.48-.1-.27.18-.19.39.16.46.33.92.53,1.37s.16.3.48.26c1.37-.18,2.72-.42,4.07-.69C11.22,10.61,10.89,10.55,10.67,10.49ZM28.86,5.41a9.37,9.37,0,0,0-.9-.28.37.37,0,0,0-.43.15c-.44.67-.86,1.37-1.28,2.06-.25.43-.1.3.12.15.84-.59,1.72-1.1,2.54-1.73C29.15,5.57,29.11,5.51,28.86,5.41ZM9.59,6.71c-.22.1-.44.21-.66.3s-.27.2,0,.35c.61.37,1.24.72,1.86,1.07.28.16.29.13.13-.17-.27-.48-.56-.94-.87-1.4C9.87,6.63,9.8,6.62,9.59,6.71Zm18,4.77a15.31,15.31,0,0,0-1.22-1.07c-.15-.12-.22-.09-.14.11.29.73.57,1.47.87,2.19.16.38.19.34.32,0l.27-.7C27.86,11.6,27.81,11.66,27.61,11.48Zm-16.44,0c-.56.49-1.1,1-1.63,1.54-.22.23-.18.3.06.28s.35,0,.52-.06.34-.11.54-.45.47-.79.68-1.21S11.28,11.41,11.17,11.51Z"/><path class="cls-8" d="M27.59,12.32l-.07,0c-.28.07-.46-.36-.58-.57s-.4-.7-.59-1l-.09-.19c.28.73.56,1.46.86,2.18.16.38.19.34.32,0Z"/><path class="cls-8" d="M32.14,7.6,32,7.37c0,.15.11.3.17.45s.26.64-.05.71A7.76,7.76,0,0,1,31,8.64c-1.26.09-2.53.15-3.79.21l-1,.06a1.56,1.56,0,0,0,.25,0c2.05,0,4.11,0,6.16-.11.22,0,.34,0,.15-.29S32.37,7.89,32.14,7.6Z"/><path class="cls-8" d="M28.13,6l-.68.59-.76.67c.74-.5,1.51-1,2.22-1.51.24-.19.2-.25-.05-.35a4.06,4.06,0,0,0-.59-.19.54.54,0,0,1,.16.33C28.44,5.76,28.25,5.9,28.13,6Z"/><path class="cls-8" d="M11.17,11.51l0,0a5.23,5.23,0,0,1-.72,1.19,3.12,3.12,0,0,1-.63.58l.34,0c.25,0,.34-.11.54-.45s.47-.79.68-1.21S11.28,11.41,11.17,11.51Z"/><path class="cls-8" d="M10.28,8.05a10.74,10.74,0,0,1-.85-.66A.73.73,0,0,1,9.18,7V6.9L8.93,7c-.34.15-.27.2,0,.35.61.37,1.24.72,1.86,1.07a.57.57,0,0,0,.2.09Z"/><path class="cls-8" d="M10.88,10.67c-.92.12-1.85.17-2.78.24a8.23,8.23,0,0,1-.86,0,2.09,2.09,0,0,1-.89-.18,2.09,2.09,0,0,1-.64-.68c.13.37.27.73.43,1.08s.16.3.48.26c1.37-.18,2.72-.42,4.07-.69Z"/></g></g></svg>